<svg xmlns="http://www.w3.org/2000/svg" fill="none" viewBox="0 0 339 421"><g clip-path="url(#a)"><path fill="#EDF8ED" fill-rule="evenodd" d="M82.4 0H0v421h339V281.8a188.8 188.8 0 0 1-99.8 27.3C80.6 310-11.5 125.6 82.4 0Z" clip-rule="evenodd"/><path fill="#FCBF00" d="M81.6 0C-82.9 143.7 17.3 420.3 239.2 421.2c36.9-.2 70.3-8 99.8-21.4v-118a188.8 188.8 0 0 1-99.8 27.3C80.6 310-11.5 125.6 82.4 0h-.8Z"/><path fill="#006625" d="M239.2 289.2A174.7 174.7 0 0 1 107.7 0H233a131 131 0 0 0-66.4 114.9A133.7 133.7 0 0 0 339 242.5V258a173.8 173.8 0 0 1-99.8 31.3Z" opacity=".7"/></g><defs><clipPath id="a"><path fill="#fff" d="M0 0h339v421H0z"/></clipPath></defs></svg>