<?xml version="1.0" encoding="UTF-8"?>
<svg id="Layer_2" data-name="Layer 2" xmlns="http://www.w3.org/2000/svg" viewBox="0 0 94.21 67.29">
  <defs>
    <style>
      .cls-1 {
        fill: #04b45b;
        stroke-width: 0px;
      }
    </style>
  </defs>
  <g id="Layer_1-2" data-name="Layer 1">
    <path class="cls-1" d="m4.85,0C2.15,0,0,2.15,0,4.58v57.87c0,2.69,2.15,4.85,4.85,4.85h84.79c2.69,0,4.58-2.15,4.58-4.85V4.58c0-2.42-1.88-4.58-4.58-4.58H4.85Zm8.61,9.96c.54,0,1.35.27,1.88.54l31.76,19.11,32.03-19.11c3.77-2.42,7.27,3.5,3.5,5.65l-33.65,20.19c-1.08.81-2.42.81-3.5,0L11.84,16.15c-2.96-1.62-1.89-5.92,1.61-6.19h0Z"/>
  </g>
</svg>