<?xml version="1.0" encoding="UTF-8"?>
<svg id="Layer_2" data-name="Layer 2" xmlns="http://www.w3.org/2000/svg" viewBox="0 0 87.76 71.31">
  <defs>
    <style>
      .cls-1 {
        fill: #81d3eb;
        stroke-width: 0px;
      }
    </style>
  </defs>
  <g id="Layer_1-2" data-name="Layer 1">
    <path class="cls-1" d="m27.6,71.31c33.12,0,51.23-27.44,51.23-51.23,0-.78,0-1.56-.05-2.33,3.52-2.55,6.57-5.7,8.98-9.32-3.29,1.46-6.77,2.41-10.34,2.83,3.76-2.25,6.57-5.79,7.92-9.96-3.53,2.1-7.4,3.57-11.43,4.37-3.4-3.62-8.16-5.68-13.13-5.68-9.89,0-18.02,8.14-18.02,18.02,0,1.37.16,2.74.47,4.08-14.47-.73-27.97-7.57-37.11-18.81C1.36,11.47,3.81,22.07,11.68,27.32c-2.86-.08-5.67-.86-8.17-2.25v.23c0,8.54,6.08,15.96,14.45,17.65-2.65.72-5.43.83-8.13.31,2.35,7.32,9.14,12.36,16.82,12.5-6.37,5.01-14.25,7.73-22.36,7.72-1.43,0-2.86-.09-4.29-.26,8.23,5.28,17.82,8.09,27.6,8.07"/>
  </g>
</svg>